<?xml version="1.0" encoding="UTF-8" standalone="no"?>
<!-- Generator: Adobe Illustrator 19.1.0, SVG Export Plug-In . SVG Version: 6.00 Build 0)  -->

<svg
   xmlns:dc="http://purl.org/dc/elements/1.1/"
   xmlns:cc="http://creativecommons.org/ns#"
   xmlns:rdf="http://www.w3.org/1999/02/22-rdf-syntax-ns#"
   xmlns:svg="http://www.w3.org/2000/svg"
   xmlns="http://www.w3.org/2000/svg"
   xmlns:sodipodi="http://sodipodi.sourceforge.net/DTD/sodipodi-0.dtd"
   xmlns:inkscape="http://www.inkscape.org/namespaces/inkscape"
   version="1.1"
   id="Layer_1"
   x="0px"
   y="0px"
   viewBox="0 0 1000 200"
   style="enable-background:new 0 0 1000 200;"
   xml:space="preserve"
   inkscape:version="0.91 r"
   sodipodi:docname="CampyBanner.svg"><metadata
     id="metadata37"><rdf:RDF><cc:Work
         rdf:about=""><dc:format>image/svg+xml</dc:format><dc:type
           rdf:resource="http://purl.org/dc/dcmitype/StillImage" /></cc:Work></rdf:RDF></metadata><defs
     id="defs35" /><sodipodi:namedview
     pagecolor="#ffffff"
     bordercolor="#666666"
     borderopacity="1"
     objecttolerance="10"
     gridtolerance="10"
     guidetolerance="10"
     inkscape:pageopacity="0"
     inkscape:pageshadow="2"
     inkscape:window-width="1366"
     inkscape:window-height="748"
     id="namedview33"
     showgrid="false"
     inkscape:zoom="0.91641039"
     inkscape:cx="494.66676"
     inkscape:cy="106.77138"
     inkscape:window-x="-2"
     inkscape:window-y="-3"
     inkscape:window-maximized="1"
     inkscape:current-layer="Layer_1" /><style
     type="text/css"
     id="style3">
	.st0{fill:none;stroke:#424242;stroke-width:3;stroke-miterlimit:10;}
	.st1{fill:#377BA8;stroke:#424242;stroke-width:3;stroke-miterlimit:10;}
	.st2{fill:none;stroke:#FFFFFF;stroke-width:1.5;stroke-linecap:round;stroke-miterlimit:10;}
	.st3{fill:#424242;}
</style><circle
     class="st1"
     cx="-78.798409"
     cy="307.84155"
     r="20.08354"
     id="circle9"
     style="fill:#377ba8;fill-opacity:0.94117647;stroke:#424242;stroke-width:1.98899996;stroke-miterlimit:10;stroke-dasharray:none" /><circle
     class="st1"
     cx="93.095955"
     cy="69.893456"
     r="32.766663"
     id="circle13"
     style="fill:#377ba8;fill-opacity:0.94117647;stroke:#424242;stroke-width:2.21396351;stroke-miterlimit:10;stroke-dasharray:none" /><g
     id="g17"
     transform="translate(-31.645214,-7.6384996)"><path
       class="st3"
       d="m 256.2,142.1 c 1.2,0 2.2,0.5 3.1,1.4 l 8.6,9.4 c -4.8,5.9 -10.6,10.4 -17.6,13.6 -7,3.1 -15.3,4.7 -25.1,4.7 -8.7,0 -16.6,-1.5 -23.6,-4.5 -7,-3 -12.9,-7.1 -17.9,-12.5 -4.9,-5.3 -8.7,-11.7 -11.4,-19 -2.6,-7.4 -3.9,-15.4 -3.9,-24.2 0,-8.8 1.5,-16.9 4.4,-24.3 2.9,-7.4 7.1,-13.7 12.4,-19 5.3,-5.3 11.7,-9.5 19.1,-12.4 7.4,-3 15.6,-4.4 24.5,-4.4 8.7,0 16.4,1.4 22.9,4.2 6.5,2.8 12.1,6.5 16.8,11.1 l -7.3,10.2 c -0.4,0.7 -1,1.2 -1.7,1.7 -0.7,0.5 -1.6,0.7 -2.8,0.7 -1.2,0 -2.5,-0.5 -3.8,-1.5 -1.3,-1 -3,-2 -5,-3.2 -2,-1.1 -4.5,-2.2 -7.6,-3.2 -3.1,-1 -7,-1.5 -11.7,-1.5 -5.5,0 -10.6,1 -15.3,2.9 -4.6,1.9 -8.6,4.7 -12,8.3 -3.4,3.6 -5.9,7.9 -7.8,13.1 -1.9,5.1 -2.8,10.9 -2.8,17.3 0,6.6 0.9,12.5 2.8,17.7 1.9,5.2 4.4,9.5 7.6,13 3.2,3.5 7,6.2 11.3,8.1 4.3,1.9 9,2.8 14,2.8 3,0 5.7,-0.2 8.1,-0.5 2.4,-0.3 4.6,-0.8 6.7,-1.5 2.1,-0.7 4,-1.6 5.8,-2.7 1.8,-1.1 3.6,-2.5 5.4,-4.1 0.5,-0.5 1.1,-0.9 1.7,-1.2 0.8,-0.4 1.4,-0.5 2.1,-0.5 z"
       id="path19"
       inkscape:connector-curvature="0"
       style="fill:#424242" /><path
       class="st3"
       d="m 387.9,169.8 -16.9,0 c -1.9,0 -3.5,-0.5 -4.7,-1.4 -1.2,-0.9 -2.1,-2.1 -2.6,-3.5 l -8.8,-24 -48.8,0 -8.8,24 c -0.4,1.2 -1.3,2.4 -2.6,3.4 -1.3,1 -2.8,1.5 -4.7,1.5 l -17,0 46.2,-117.7 22.4,0 46.3,117.7 z m -76.1,-44.4 37.5,0 L 335,86.3 c -0.7,-1.7 -1.4,-3.8 -2.2,-6.1 -0.8,-2.4 -1.6,-4.9 -2.3,-7.7 -0.8,2.8 -1.5,5.3 -2.2,7.7 -0.7,2.4 -1.5,4.5 -2.2,6.3 l -14.3,38.9 z"
       id="path21"
       inkscape:connector-curvature="0"
       style="fill:#424242" /><path
       class="st3"
       d="m 461.7,126.4 c 0.8,1.9 1.6,3.8 2.3,5.7 0.8,-2 1.5,-3.9 2.4,-5.8 0.8,-1.9 1.7,-3.7 2.6,-5.5 l 34.8,-65.2 c 0.4,-0.8 0.9,-1.5 1.3,-2 0.5,-0.5 1,-0.8 1.5,-1.1 0.6,-0.2 1.2,-0.4 1.9,-0.4 C 509.2,52 510,52 511,52 l 16.5,0 0,117.7 -19.3,0 0,-76 c 0,-1.4 0,-3 0.1,-4.6 0.1,-1.7 0.2,-3.4 0.4,-5.1 l -35.6,66.7 c -0.8,1.5 -1.9,2.7 -3.2,3.5 -1.3,0.8 -2.8,1.3 -4.6,1.3 l -3,0 c -1.7,0 -3.3,-0.4 -4.6,-1.3 -1.3,-0.8 -2.4,-2 -3.2,-3.5 l -36.1,-67 c 0.2,1.8 0.4,3.5 0.4,5.2 0.1,1.7 0.1,3.3 0.1,4.8 l 0,76 -19.3,0 0,-117.6 16.5,0 c 1,0 1.8,0 2.5,0.1 0.7,0.1 1.3,0.2 1.9,0.4 0.6,0.2 1.1,0.6 1.6,1.1 0.5,0.5 0.9,1.1 1.4,2 l 35.2,65.4 c 1.4,1.6 2.2,3.4 3,5.3 z"
       id="path23"
       inkscape:connector-curvature="0"
       style="fill:#424242" /><path
       class="st3"
       d="m 574.1,128.4 0,41.4 -21.9,0 0,-117.7 38.3,0 c 7.9,0 14.7,0.9 20.4,2.8 5.8,1.8 10.5,4.4 14.2,7.7 3.7,3.3 6.5,7.3 8.3,11.9 1.8,4.6 2.7,9.7 2.7,15.1 0,5.7 -1,10.9 -2.8,15.7 -1.9,4.7 -4.7,8.8 -8.5,12.2 -3.8,3.4 -8.5,6.1 -14.2,8 -5.7,1.9 -12.4,2.8 -20,2.8 l -16.5,0 z m 0,-17.1 16.4,0 c 4,0 7.5,-0.5 10.5,-1.5 3,-1 5.5,-2.4 7.4,-4.3 2,-1.9 3.4,-4.2 4.4,-6.8 1,-2.7 1.5,-5.7 1.5,-9 0,-3.1 -0.5,-6 -1.5,-8.5 -1,-2.5 -2.4,-4.7 -4.4,-6.5 -2,-1.8 -4.4,-3.2 -7.4,-4.1 -3,-0.9 -6.5,-1.4 -10.5,-1.4 l -16.4,0 0,42.1 z"
       id="path25"
       inkscape:connector-curvature="0"
       style="fill:#424242" /><path
       class="st3"
       d="m 705.5,124.1 0,45.7 -21.9,0 0,-45.7 -42.9,-71.9 19.3,0 c 1.9,0 3.4,0.5 4.5,1.4 1.1,0.9 2,2.1 2.8,3.5 l 21.6,39.3 c 1.2,2.3 2.3,4.5 3.3,6.6 0.9,2.1 1.8,4.1 2.5,6.1 0.7,-2.1 1.5,-4.1 2.4,-6.2 0.9,-2.1 2,-4.3 3.2,-6.6 L 721.7,57 c 0.6,-1.2 1.5,-2.3 2.7,-3.3 1.2,-1 2.7,-1.5 4.6,-1.5 l 19.4,0 -42.9,71.9 z"
       id="path27"
       inkscape:connector-curvature="0"
       style="fill:#424242" /><path
       class="st3"
       d="m 864.2,111 c 0,8.6 -1.4,16.5 -4.3,23.8 -2.9,7.2 -6.9,13.4 -12.1,18.6 -5.2,5.2 -11.5,9.3 -18.8,12.1 -7.3,2.9 -15.4,4.3 -24.3,4.3 l -44.9,0 0,-117.7 44.9,0 c 8.9,0 17,1.5 24.3,4.4 7.3,2.9 13.6,6.9 18.8,12.1 5.2,5.2 9.2,11.4 12.1,18.6 2.9,7.2 4.3,15.2 4.3,23.8 z m -22.4,0 c 0,-6.5 -0.9,-12.2 -2.6,-17.4 -1.7,-5.1 -4.2,-9.5 -7.4,-13 -3.2,-3.6 -7.1,-6.3 -11.7,-8.2 -4.6,-1.9 -9.8,-2.8 -15.5,-2.8 l -22.9,0 0,82.9 22.9,0 c 5.8,0 10.9,-0.9 15.5,-2.8 4.6,-1.9 8.5,-4.6 11.7,-8.2 3.2,-3.6 5.7,-7.9 7.4,-13 1.8,-5.3 2.6,-11 2.6,-17.5 z"
       id="path29"
       inkscape:connector-curvature="0"
       style="fill:#424242" /><path
       class="st3"
       d="m 881.4,169.8 0,-117.7 40.6,0 c 7.7,0 14.3,0.7 19.7,2.2 5.4,1.5 9.9,3.6 13.4,6.3 3.5,2.7 6.1,6 7.7,9.8 1.6,3.9 2.4,8.2 2.4,13 0,2.8 -0.4,5.4 -1.2,7.9 -0.8,2.5 -2.1,4.9 -3.8,7.1 -1.7,2.2 -3.9,4.2 -6.5,6 -2.6,1.8 -5.8,3.3 -9.4,4.6 16.2,3.6 24.3,12.4 24.3,26.2 0,5 -0.9,9.6 -2.8,13.8 -1.9,4.2 -4.7,7.9 -8.3,10.9 -3.6,3.1 -8.1,5.5 -13.4,7.2 -5.3,1.7 -11.4,2.6 -18.2,2.6 l -44.5,0 z m 21.9,-66.7 17.5,0 c 7.4,0 13.1,-1.4 16.9,-4.1 3.9,-2.7 5.8,-7 5.8,-12.9 0,-6.1 -1.7,-10.5 -5.2,-13.1 -3.5,-2.6 -8.9,-3.9 -16.3,-3.9 l -18.7,0 0,34 z m 0,15.1 0,34.5 22.2,0 c 4.1,0 7.5,-0.5 10.2,-1.5 2.7,-1 4.9,-2.3 6.6,-3.9 1.7,-1.6 2.8,-3.5 3.6,-5.7 0.7,-2.2 1.1,-4.5 1.1,-6.9 0,-2.5 -0.4,-4.8 -1.2,-6.9 -0.8,-2 -2.1,-3.8 -3.8,-5.2 -1.7,-1.4 -4,-2.5 -6.7,-3.3 -2.7,-0.8 -6,-1.1 -9.8,-1.1 l -22.2,0 z"
       id="path31"
       inkscape:connector-curvature="0"
       style="fill:#424242" /></g><g
     id="g4196"
     transform="matrix(1.1069818,0,0,1.1069818,-83.217712,-73.133922)"><path
       sodipodi:nodetypes="csscsssc"
       style="fill:none;stroke:#e0e0e0;stroke-width:1.86699998;stroke-linecap:round;stroke-miterlimit:10;stroke-dasharray:none;stroke-opacity:1"
       inkscape:connector-curvature="0"
       id="path15"
       d="m 144.83698,132.47877 c 0,0 -0.70318,-8.06011 2.63555,-8.03272 4.46893,0.0367 0.99301,7.8297 5.47393,7.9747 4.62941,0.14982 0.88881,-8.27382 5.57074,-7.9747 4.5209,0 1.12067,8.02386 5.68632,7.9747 5.26731,-0.0568 0.64791,-8.37655 5.46551,-8.10602 2.42899,0.1364 2.52155,3.65995 2.70217,5.70902 0.21427,2.43075 0.21427,2.43075 0.21427,2.43075"
       class="st2" /><circle
       r="1.7738614"
       cy="137.15868"
       cx="167.58116"
       id="path4182-8"
       style="fill:#e6e6e6;fill-opacity:1;stroke:none;stroke-width:0.1;stroke-linejoin:round;stroke-miterlimit:10;stroke-dasharray:none;stroke-opacity:1" /><circle
       r="1.7738614"
       cy="137.23335"
       cx="158.79172"
       id="path4182-8-0"
       style="fill:#e6e6e6;fill-opacity:1;stroke:none;stroke-width:0.1;stroke-linejoin:round;stroke-miterlimit:10;stroke-dasharray:none;stroke-opacity:1" /><circle
       r="1.7738614"
       cy="137.04047"
       cx="150.40051"
       id="path4182-8-9"
       style="fill:#e6e6e6;fill-opacity:1;stroke:none;stroke-width:0.1;stroke-linejoin:round;stroke-miterlimit:10;stroke-dasharray:none;stroke-opacity:1" /></g><circle
     class="st1"
     cx="-61.193012"
     cy="236.36926"
     r="20.08354"
     id="circle9-6"
     style="fill:#377ba8;fill-opacity:0.94117647;stroke:#424242;stroke-width:1.98899996;stroke-miterlimit:10;stroke-dasharray:none" /><circle
     class="st1"
     cx="89.623863"
     cy="307.2179"
     r="20.08354"
     id="circle9-1"
     style="fill:#377ba8;fill-opacity:0.94117647;stroke:#424242;stroke-width:1.98899996;stroke-miterlimit:10;stroke-dasharray:none" /></svg>